<svg xmlns="http://www.w3.org/2000/svg" width="25" height="17.5" viewBox="0 0 25 17.5">
    <path id="prefix__Path_4027" d="M21.016-8.633A4.079 4.079 0 0 0 21.25-10a3.616 3.616 0 0 0-1.094-2.656A3.616 3.616 0 0 0 17.5-13.75a3.653 3.653 0 0 0-2.07.625 6.3 6.3 0 0 0-2.266-2.266 6.043 6.043 0 0 0-3.145-.859 6.15 6.15 0 0 0-3.145.84 6.206 6.206 0 0 0-2.284 2.285A6.114 6.114 0 0 0 3.75-10v.313a5.611 5.611 0 0 0-2.7 2.031A5.426 5.426 0 0 0 0-4.375a5.429 5.429 0 0 0 .762 2.813A5.733 5.733 0 0 0 2.813.488a5.429 5.429 0 0 0 2.813.762H20a4.958 4.958 0 0 0 2.52-.664 4.864 4.864 0 0 0 1.816-1.816A4.958 4.958 0 0 0 25-3.75a4.813 4.813 0 0 0-1.133-3.164 4.875 4.875 0 0 0-2.851-1.719zM15.82-5.2l-4.14 4.145a.581.581 0 0 1-.43.156.581.581 0 0 1-.43-.156L6.68-5.2a.568.568 0 0 1-.117-.664.58.58 0 0 1 .586-.391h2.539v-4.375a.608.608 0 0 1 .176-.449.608.608 0 0 1 .449-.176h1.875a.608.608 0 0 1 .449.176.608.608 0 0 1 .176.449v4.38h2.539a.58.58 0 0 1 .586.391.568.568 0 0 1-.118.659z" data-name="Path 4027" transform="translate(0 16.25)" style="fill:#ed4d67"/>
</svg>
