<svg xmlns="http://www.w3.org/2000/svg" width="34" height="34" viewBox="0 0 34 34">
    <g id="prefix__Document">
        <path id="prefix__Path_52" d="M1646.077 1579.7l-6.325-6.359a1.141 1.141 0 0 0-.809-.336h-10.8a1.141 1.141 0 0 0-1.142 1.142v22.834a1.141 1.141 0 0 0 1.142 1.142h17.126a1.142 1.142 0 0 0 1.142-1.142V1580.5a1.141 1.141 0 0 0-.334-.8zm-1.954 1.3h-5.706v-5.709h.051zm-14.84 14.843v-20.551h6.851v6.828a1.139 1.139 0 0 0 1.115 1.165h6.877v12.559zm10.995-6.708a1 1 0 0 1-1 1h-5.149a1 1 0 0 1 0-2h5.149a1 1 0 0 1 1 .992z" data-name="Path 52" transform="translate(-1621.001 -1569)" style="fill:#999"/>
        <path id="prefix__Rectangle_936" d="M0 0H34V34H0z" data-name="Rectangle 936" style="fill:none"/>
    </g>
</svg>
