<svg xmlns="http://www.w3.org/2000/svg" width="153.327" height="153.526" viewBox="0 0 153.327 153.526">
    <defs>
        <style>
            .prefix__cls-2{fill:#f7657d;isolation:isolate;opacity:.429}.prefix__cls-14,.prefix__cls-7{fill:#ed4d67}.prefix__cls-8{fill:#bf263f}.prefix__cls-9{fill:#fff}.prefix__cls-10,.prefix__cls-13{opacity:.2}.prefix__cls-11,.prefix__cls-13{fill:#f1647d}.prefix__cls-14{fill-rule:evenodd}
        </style>
    </defs>
    <g id="prefix__Group_10738" data-name="Group 10738" transform="translate(-503.587 -518.108)">
        <g id="prefix__Group_6942" data-name="Group 6942">
            <path id="prefix__Rectangle_1795" d="M600.559 543.1l33.8 35.47a24 24 0 01-1.147 34.343l-36.1 33.217a25.037 25.037 0 01-34.943-1.13l-33.8-35.47a24 24 0 011.146-34.343l36.1-33.217a25.039 25.039 0 0134.944 1.13z" data-name="Rectangle 1795" style="opacity:.15;fill:#ed4e67"/>
            <path id="prefix__Path_10908" d="M634.051 657.846a3.2 3.2 0 01-3.185-2.78 3.124 3.124 0 01.643-2.32 3.226 3.226 0 015.732 1.545 3.118 3.118 0 01-.643 2.32 3.2 3.2 0 01-2.154 1.211 3.277 3.277 0 01-.393.024zm.005-5.019a1.7 1.7 0 00-.235.014 1.891 1.891 0 00-1.276.714 1.808 1.808 0 00-.374 1.348 1.912 1.912 0 003.391.9 1.808 1.808 0 00.374-1.348 1.881 1.881 0 00-1.88-1.628z" class="prefix__cls-2" data-name="Path 10908"/>
            <path id="prefix__Path_10909" d="M531.6 662.25l.127-5.411-4.486-3.184 5.3-1.563 1.684-5.161 3.133 4.445 5.53-.01-3.353 4.322 1.72 5.158-5.207-1.789zm-1.391-8.1l2.848 2.023-.081 3.473 2.858-2.052 3.334 1.145-1.1-3.3 2.135-2.751-3.523.006-2.017-2.86-1.085 3.325z" data-name="Path 10909" style="opacity:.418;fill:#f7657d;isolation:isolate"/>
            <path id="prefix__Path_10910" d="M629.727 538.392l-.949-3.81-3.758-1.413 3.421-2.074.2-3.924 3.045 2.541 3.869-1.039-1.519 3.652 2.193 3.307-4-.294zm-1.713-5.5l1.872.7.483 1.939 1.275-1.557 2.006.148-1.1-1.658.762-1.833-1.949.523-1.545-1.289-.1 1.988z" data-name="Path 10910" style="opacity:.369;fill:#f7657d;isolation:isolate"/>
            <path id="prefix__Path_10911" d="M528.639 544.987a5.007 5.007 0 01-4.983-4.345 4.861 4.861 0 011-3.622 5.048 5.048 0 018.969 2.413 4.869 4.869 0 01-1 3.623 5.01 5.01 0 01-3.372 1.894 5.1 5.1 0 01-.614.037zm.006-8.585a3.786 3.786 0 00-2.949 1.427 3.56 3.56 0 00-.737 2.65 3.736 3.736 0 006.63 1.768 3.564 3.564 0 00.736-2.651 3.69 3.69 0 00-3.68-3.196z" class="prefix__cls-2" data-name="Path 10911"/>
            <path id="prefix__Path_10912" d="M516.109 552.762a3.2 3.2 0 01-3.186-2.779 3.112 3.112 0 01.642-2.319 3.224 3.224 0 015.731 1.543 3.124 3.124 0 01-.644 2.321 3.229 3.229 0 01-2.544 1.234zm0-5.019a1.686 1.686 0 00-.235.014 1.9 1.9 0 00-1.276.715 1.812 1.812 0 00-.375 1.348 1.911 1.911 0 003.391.9 1.814 1.814 0 00.375-1.348 1.882 1.882 0 00-1.877-1.629z" class="prefix__cls-2" data-name="Path 10912"/>
            <path id="prefix__Path_10913" d="M633.464 553.465a4.625 4.625 0 01-.523-.031 4.268 4.268 0 01-2.871-1.612 4.146 4.146 0 01-.855-3.084 4.3 4.3 0 017.636-2.055 4.146 4.146 0 01.856 3.084 4.264 4.264 0 01-4.243 3.698zm-.005-7.307a3.141 3.141 0 00-3.133 2.719 3.027 3.027 0 00.626 2.256 3.18 3.18 0 005.644-1.506 3.032 3.032 0 00-.626-2.256 3.195 3.195 0 00-2.511-1.213z" class="prefix__cls-2" data-name="Path 10913"/>
            <path id="prefix__Path_10914" d="M646.741 558.818a3.435 3.435 0 01-.39-.022 3.2 3.2 0 01-2.154-1.211 3.122 3.122 0 01-.643-2.321 3.224 3.224 0 015.73-1.545 3.117 3.117 0 01.644 2.321 3.2 3.2 0 01-3.187 2.778zm0-5.019a1.883 1.883 0 00-1.881 1.628 1.816 1.816 0 00.375 1.349 1.912 1.912 0 003.391-.9 1.815 1.815 0 00-.375-1.349 1.891 1.891 0 00-1.275-.714 1.708 1.708 0 00-.237-.013z" class="prefix__cls-2" data-name="Path 10914"/>
            <path id="prefix__Path_10915" d="M590.79 651.727a.594.594 0 01-.011-1.188 23.739 23.739 0 002.312-.153.594.594 0 01.135 1.181c-.8.091-1.616.145-2.425.16zm-2.372-.069h-.046c-.8-.062-1.614-.162-2.411-.3a.592.592 0 01-.483-.686.582.582 0 01.686-.483c.76.132 1.534.229 2.3.288a.593.593 0 01-.045 1.185zm7.083-.468a.594.594 0 01-.122-1.175 24.855 24.855 0 002.242-.584.594.594 0 11.354 1.133c-.772.24-1.563.447-2.351.613a.643.643 0 01-.124.013zm-11.754-.346a.62.62 0 01-.158-.021 25.36 25.36 0 01-2.311-.757.594.594 0 01.425-1.11c.717.275 1.457.518 2.2.722a.594.594 0 01-.157 1.166zm16.28-1.068a.594.594 0 01-.229-1.141c.7-.295 1.406-.631 2.09-1a.594.594 0 11.562 1.046 25.08 25.08 0 01-2.193 1.047.6.6 0 01-.23.048zm-20.711-.622a.587.587 0 01-.263-.062q-.641-.316-1.27-.672l-.844-.479a.594.594 0 01.585-1.034l.843.478q.6.337 1.213.643a.594.594 0 01-.264 1.126zm24.888-1.626a.594.594 0 01-.332-1.087 23.546 23.546 0 001.86-1.38.594.594 0 11.753.918c-.623.511-1.279 1-1.951 1.449a.6.6 0 01-.334.1zm-29.038-.682a.6.6 0 01-.293-.077l-2.065-1.171a.594.594 0 11.586-1.034l2.065 1.171a.594.594 0 01-.293 1.111zm32.7-2.328a.594.594 0 01-.42-1.014 23.738 23.738 0 001.555-1.716.593.593 0 11.918.752c-.51.624-1.06 1.23-1.633 1.8a.592.592 0 01-.419.178zm-36.832-.015a.591.591 0 01-.292-.077l-2.066-1.171a.594.594 0 01.586-1.034l2.065 1.171a.594.594 0 01-.293 1.111zm-4.131-2.344a.584.584 0 01-.292-.078l-2.065-1.172a.593.593 0 11.585-1.032l2.065 1.173a.593.593 0 01-.293 1.109zm43.97-1.31a.595.595 0 01-.493-.924q.377-.562.723-1.155l.5-.842a.593.593 0 111.023.6l-.495.842c-.243.414-.5.82-.76 1.214a.593.593 0 01-.497.265zm-48.1-1.033a.584.584 0 01-.292-.078l-2.066-1.172a.593.593 0 11.586-1.032l2.066 1.172a.594.594 0 01-.294 1.11zm-4.131-2.343a.575.575 0 01-.292-.079l-2.066-1.172a.593.593 0 11.586-1.031l2.065 1.172a.594.594 0 01-.293 1.11zm54.672-.7a.582.582 0 01-.3-.082.6.6 0 01-.212-.813l1.2-2.047a.594.594 0 111.024.6l-1.2 2.047a.6.6 0 01-.512.297zm-58.8-1.646a.584.584 0 01-.292-.078l-2.065-1.172a.593.593 0 11.585-1.032l2.066 1.173a.593.593 0 01-.294 1.109zm-4.13-2.343a.588.588 0 01-.293-.078l-2.065-1.172a.593.593 0 11.586-1.032l2.065 1.172a.594.594 0 01-.293 1.11zm65.338-.1a.585.585 0 01-.3-.082.6.6 0 01-.211-.813l1.2-2.047a.593.593 0 111.023.6l-1.2 2.047a.593.593 0 01-.515.292zm-69.469-2.24a.593.593 0 01-.292-.077l-2.066-1.171a.594.594 0 01.586-1.033l2.065 1.171a.593.593 0 01-.293 1.11zm71.875-1.856a.593.593 0 01-.511-.894l1.2-2.048a.594.594 0 011.024.6l-1.2 2.048a.592.592 0 01-.516.291zm-76.006-.487a.593.593 0 01-.292-.077l-2.065-1.171a.594.594 0 01.585-1.034l2.066 1.171a.594.594 0 01-.294 1.111zm-4.131-2.343a.591.591 0 01-.292-.077l-2.066-1.171a.594.594 0 01.586-1.034l2.065 1.171a.594.594 0 01-.293 1.111zm82.543-1.265a.594.594 0 01-.511-.894l1.2-2.047a.594.594 0 011.024.6l-1.2 2.047a.6.6 0 01-.516.291zm-86.634-1.146a.6.6 0 01-.332-.1 25.215 25.215 0 01-1.947-1.456.594.594 0 01.757-.916c.588.487 1.212.953 1.855 1.388a.593.593 0 01-.333 1.085zm89.041-2.951a.582.582 0 01-.3-.082.593.593 0 01-.212-.812l1.2-2.048a.594.594 0 111.024.6l-1.2 2.048a.6.6 0 01-.516.298zm-92.7-.071a.594.594 0 01-.421-.175 24.615 24.615 0 01-1.629-1.81.594.594 0 01.921-.75 23.332 23.332 0 001.55 1.723.594.594 0 01-.421 1.012zm-3-3.676a.594.594 0 01-.5-.267 24.744 24.744 0 01-1.241-2.092.594.594 0 111.05-.554c.359.679.756 1.35 1.181 1.991a.593.593 0 01-.167.822.584.584 0 01-.318.1zm98.1-.348a.581.581 0 01-.3-.082.593.593 0 01-.212-.812l1.2-2.048a.594.594 0 111.024.6l-1.2 2.047a.594.594 0 01-.51.294zm-100.312-3.847a.6.6 0 01-.55-.37c-.3-.747-.575-1.519-.8-2.295a.594.594 0 011.138-.338c.219.739.477 1.475.767 2.186a.594.594 0 01-.55.817zm102.718-.247a.581.581 0 01-.3-.082.594.594 0 01-.212-.813l1.2-2.047a.594.594 0 111.025.6l-1.2 2.047a.6.6 0 01-.511.295zm2.406-4.095a.585.585 0 01-.3-.082.594.594 0 01-.211-.813l1.2-2.047a.593.593 0 111.023.6l-1.2 2.047a.594.594 0 01-.51.295zm-106.47-.2a.593.593 0 01-.583-.483c-.151-.789-.264-1.6-.337-2.407a.594.594 0 011.183-.106c.069.769.177 1.54.32 2.291a.592.592 0 01-.472.694.526.526 0 01-.109.007zm108.876-3.892a.592.592 0 01-.511-.894l1.2-2.046a.593.593 0 111.023.6l-1.2 2.047a.593.593 0 01-.51.289zm-109.3-.829h-.006a.594.594 0 01-.588-.6c.01-.8.059-1.622.149-2.428a.594.594 0 011.181.132 22.984 22.984 0 00-.142 2.31.594.594 0 01-.589.582zm111.7-3.265a.592.592 0 01-.511-.894l1.2-2.048q.246-.418.474-.845a.594.594 0 111.047.56c-.159.3-.326.593-.5.886l-1.2 2.048a.593.593 0 01-.502.289zm-111.174-1.446a.672.672 0 01-.125-.013.6.6 0 01-.455-.707 23.95 23.95 0 01.631-2.35.594.594 0 011.13.367 22.993 22.993 0 00-.6 2.234.6.6 0 01-.573.465zm113.878-3.614a.58.58 0 01-.226-.045.594.594 0 01-.323-.776 23.029 23.029 0 00.776-2.179.594.594 0 111.137.341 24.39 24.39 0 01-.815 2.292.6.6 0 01-.541.363zm-112.42-.9a.607.607 0 01-.237-.05.594.594 0 01-.306-.782c.322-.735.687-1.468 1.085-2.177a.594.594 0 111.035.582 23.212 23.212 0 00-1.032 2.071.594.594 0 01-.537.354zm113.784-3.642a.644.644 0 01-.114-.011.593.593 0 01-.469-.695 22.986 22.986 0 00.324-2.292.6.6 0 01.645-.538.594.594 0 01.538.645 24.079 24.079 0 01-.342 2.409.593.593 0 01-.574.48zm-111.527-.533a.593.593 0 01-.5-.891l1.2-2.047a.594.594 0 011.025.6l-1.2 2.048a.594.594 0 01-.517.288zm2.406-4.094a.592.592 0 01-.511-.894l1.2-2.048a.593.593 0 111.023.6l-1.2 2.048a.594.594 0 01-.504.297zm109.549-.094a.6.6 0 01-.594-.588 22.975 22.975 0 00-.138-2.31.594.594 0 111.181-.131c.088.808.137 1.625.145 2.429a.6.6 0 01-.588.6zm-107.143-4a.592.592 0 01-.511-.894l1.2-2.048a.593.593 0 111.023.6l-1.2 2.048a.593.593 0 01-.504.291zm106.623-.712a.6.6 0 01-.58-.471 23.58 23.58 0 00-.593-2.235.594.594 0 111.131-.362c.246.771.456 1.561.624 2.351a.594.594 0 01-.457.7.672.672 0 01-.117.014zm-104.217-3.383a.593.593 0 01-.511-.894l1.2-2.047a.593.593 0 111.023.6l-1.2 2.047a.593.593 0 01-.504.291zm102.782-1.139a.593.593 0 01-.545-.358c-.3-.7-.647-1.4-1.021-2.078a.593.593 0 111.038-.575c.393.708.754 1.443 1.074 2.182a.593.593 0 01-.546.829zm-100.372-2.958a.585.585 0 01-.3-.082.594.594 0 01-.212-.812l1.2-2.048a.594.594 0 111.024.6l-1.2 2.047a.6.6 0 01-.508.295zm98.072-1.187a.594.594 0 01-.489-.256 23.562 23.562 0 00-1.41-1.836.594.594 0 11.905-.769c.527.621 1.026 1.27 1.482 1.93a.593.593 0 01-.488.931zm-95.667-2.908a.582.582 0 01-.3-.082.594.594 0 01-.212-.813l1.2-2.047a.594.594 0 111.024.6l-1.2 2.047a.6.6 0 01-.508.295zm92.6-.7a.593.593 0 01-.413-.167 23.798 23.798 0 00-1.743-1.527.593.593 0 11.737-.93c.633.5 1.249 1.041 1.831 1.6a.594.594 0 01-.412 1.021zm-3.717-2.949a.591.591 0 01-.32-.095q-.588-.378-1.2-.73l-.811-.459a.594.594 0 01.585-1.034l.812.46c.431.245.85.5 1.261.765a.594.594 0 01-.322 1.093zm-86.472-.442a.592.592 0 01-.511-.894l1.2-2.046a.594.594 0 111.024.6l-1.2 2.046a.6.6 0 01-.514.289zm82.362-1.937a.6.6 0 01-.292-.077l-2.065-1.171a.594.594 0 11.585-1.034l2.066 1.171a.594.594 0 01-.294 1.111zm-79.955-2.157a.592.592 0 01-.511-.894l1.2-2.048a.593.593 0 011.023.6l-1.2 2.048a.594.594 0 01-.513.289zm75.825-.187a.59.59 0 01-.292-.076l-2.066-1.172a.594.594 0 01.586-1.033l2.065 1.171a.593.593 0 01-.293 1.11zm-4.131-2.343a.584.584 0 01-.292-.078l-2.066-1.172a.593.593 0 11.585-1.032l2.066 1.172a.593.593 0 01-.293 1.11zm-69.288-1.565a.582.582 0 01-.3-.082.593.593 0 01-.212-.812l1.2-2.048a.594.594 0 011.025.6l-1.2 2.048a.593.593 0 01-.514.289zm65.157-.778a.587.587 0 01-.293-.078l-2.066-1.18a.593.593 0 11.586-1.031l2.065 1.172a.594.594 0 01-.293 1.11zm-4.131-2.344a.574.574 0 01-.292-.078l-2.066-1.172a.593.593 0 11.586-1.031l2.065 1.172a.593.593 0 01-.293 1.109zm-58.621-.972a.585.585 0 01-.3-.082.593.593 0 01-.211-.812l1.2-2.048a.593.593 0 111.023.6l-1.2 2.048a.593.593 0 01-.513.289zm54.49-1.371a.584.584 0 01-.292-.078l-2.065-1.172a.593.593 0 11.585-1.032l2.066 1.172a.594.594 0 01-.294 1.11zm-4.131-2.343a.584.584 0 01-.292-.078l-2.066-1.173a.593.593 0 11.586-1.031l2.065 1.172a.594.594 0 01-.293 1.11zm-47.939-.372a.6.6 0 01-.319-.093.594.594 0 01-.181-.82c.438-.685.911-1.352 1.407-1.983a.594.594 0 01.933.734 23.66 23.66 0 00-1.339 1.888.593.593 0 01-.502.269zm43.808-1.972a.584.584 0 01-.292-.078l-2.065-1.172a.593.593 0 11.585-1.031l2.066 1.172a.593.593 0 01-.294 1.109zm-40.877-1.756a.595.595 0 01-.429-1.005 24.221 24.221 0 011.769-1.671.594.594 0 01.771.9c-.582.5-1.148 1.031-1.682 1.588a.593.593 0 01-.43.183zm36.746-.587a.587.587 0 01-.292-.078l-2.065-1.172a.593.593 0 11.585-1.032l2.066 1.172a.594.594 0 01-.294 1.11zm-4.13-2.343a.581.581 0 01-.292-.078l-2.066-1.173a.593.593 0 11.586-1.031l2.065 1.172a.594.594 0 01-.293 1.11zm-29.013-.158a.594.594 0 01-.341-1.08c.663-.465 1.356-.9 2.058-1.3a.593.593 0 11.582 1.034c-.668.376-1.327.791-1.959 1.234a.592.592 0 01-.341.107zm24.848-2.122a.586.586 0 01-.253-.057 24.637 24.637 0 00-2.141-.886.593.593 0 11.4-1.116c.762.273 1.518.585 2.246.928a.594.594 0 01-.253 1.131zm-20.719-.209a.594.594 0 01-.242-1.137c.735-.325 1.5-.622 2.266-.879a.594.594 0 01.376 1.126c-.733.245-1.46.528-2.159.839a.61.61 0 01-.242.042zm16.257-1.392a.6.6 0 01-.146-.018 24.89 24.89 0 00-2.271-.462.593.593 0 11.18-1.173c.8.122 1.6.285 2.382.484a.594.594 0 01-.145 1.169zm-11.761-.11a.594.594 0 01-.134-1.173 25.178 25.178 0 012.39-.435.593.593 0 11.157 1.176c-.764.1-1.531.242-2.278.416a.57.57 0 01-.136.009zm7.073-.61h-.034a23.866 23.866 0 00-2.317-.02.607.607 0 01-.615-.571.6.6 0 01.571-.617c.81-.029 1.619-.026 2.429.023a.593.593 0 01-.034 1.186z" data-name="Path 10915" style="fill:#bf2640"/>
            <path id="prefix__Path_10916" d="M654.991 589.515a1.907 1.907 0 01-1.909-1.627 1.8 1.8 0 01.373-1.344 1.944 1.944 0 013.444.888 1.8 1.8 0 01-.372 1.344 1.925 1.925 0 01-1.3.726 2.272 2.272 0 01-.236.013zm0-2.932a1.176 1.176 0 00-.922.44 1.02 1.02 0 00-.214.766 1.124 1.124 0 001.278.939 1.146 1.146 0 00.78-.431 1.027 1.027 0 00.214-.766 1.125 1.125 0 00-1.136-.948z" class="prefix__cls-2" data-name="Path 10916"/>
            <path id="prefix__Path_10917" d="M633.565 648.513a5.007 5.007 0 01-4.984-4.345 4.861 4.861 0 011-3.621 5.047 5.047 0 018.969 2.412 4.865 4.865 0 01-1 3.623 5.01 5.01 0 01-3.371 1.894 5.116 5.116 0 01-.614.037zm.005-8.585a3.785 3.785 0 00-2.95 1.428 3.561 3.561 0 00-.735 2.649 3.735 3.735 0 006.629 1.768 3.568 3.568 0 00.737-2.651 3.691 3.691 0 00-3.681-3.194z" data-name="Path 10917" style="opacity:.25;fill:#f7657d;isolation:isolate"/>
            <path id="prefix__Path_10918" d="M558.259 521.817a1.9 1.9 0 01-1.908-1.626 1.8 1.8 0 01.372-1.345 1.945 1.945 0 013.445.887 1.8 1.8 0 01-.372 1.345 1.934 1.934 0 01-1.3.726 2.292 2.292 0 01-.237.013zm0-2.932a1.176 1.176 0 00-.923.44 1.023 1.023 0 00-.213.766 1.126 1.126 0 001.277.939 1.144 1.144 0 00.781-.431 1.028 1.028 0 00.214-.767 1.124 1.124 0 00-1.135-.947z" class="prefix__cls-2" data-name="Path 10918"/>
            <path id="prefix__Path_10919" d="M608.89 540.33a1.905 1.905 0 01-1.907-1.628 1.8 1.8 0 01.374-1.346 1.946 1.946 0 013.444.889 1.8 1.8 0 01-.373 1.346 1.924 1.924 0 01-1.3.724 1.861 1.861 0 01-.238.015zm0-2.933a1.179 1.179 0 00-.923.439 1.025 1.025 0 00-.214.767 1.126 1.126 0 001.277.939 1.148 1.148 0 00.781-.431 1.024 1.024 0 00.214-.766 1.123 1.123 0 00-1.132-.945z" class="prefix__cls-2" data-name="Path 10919"/>
            <path id="prefix__Path_10920" d="M526.465 560a1.9 1.9 0 01-1.906-1.628 1.8 1.8 0 01.372-1.345 1.945 1.945 0 013.444.889 1.8 1.8 0 01-.375 1.344 1.923 1.923 0 01-1.3.725 2.032 2.032 0 01-.235.015zm0-2.932a1.182 1.182 0 00-.924.438 1.028 1.028 0 00-.214.767 1.126 1.126 0 001.278.939 1.148 1.148 0 00.781-.43 1.027 1.027 0 00.213-.767 1.122 1.122 0 00-1.13-.948z" class="prefix__cls-2" data-name="Path 10920"/>
            <path id="prefix__Path_10921" d="M531.178 637.519a1.905 1.905 0 01-1.909-1.628 1.8 1.8 0 01.372-1.344 1.945 1.945 0 013.445.887 1.8 1.8 0 01-.373 1.345 1.927 1.927 0 01-1.3.727 2.287 2.287 0 01-.235.013zm0-2.933a1.16 1.16 0 00-.143.009 1.146 1.146 0 00-.78.431 1.026 1.026 0 00-.214.766 1.129 1.129 0 001.278.94 1.145 1.145 0 00.78-.432 1.02 1.02 0 00.214-.766 1.122 1.122 0 00-1.135-.948z" class="prefix__cls-2" data-name="Path 10921"/>
        </g>
        <g id="prefix__Group_5716" data-name="Group 5716">
            <g id="prefix__Group_5713" data-name="Group 5713">
                <g id="prefix__Group_10714" data-name="Group 10714">
                    <path id="prefix__Path_3019" d="M594.416 547.442s-11.378 23.992-3.545 25.426c10.754 1.97 15.105-17.9 15.105-17.9z" class="prefix__cls-7" data-name="Path 3019"/>
                    <path id="prefix__Path_10922" d="M592.331 573.42a8.5 8.5 0 01-1.536-.142 3.3 3.3 0 01-2.448-1.827c-2.966-5.792 5.337-23.44 5.692-24.187l.205-.432 12.2 7.941-.062.283a45.9 45.9 0 01-3.556 9.791c-2.905 5.642-6.508 8.573-10.495 8.573zm2.261-25.365c-1.27 2.779-8.038 18.063-5.5 23.015a2.47 2.47 0 001.855 1.387c9.547 1.725 13.976-14.921 14.556-17.3z" class="prefix__cls-8" data-name="Path 10922"/>
                </g>
                <g id="prefix__Group_5700" data-name="Group 5700">
                    <g id="prefix__Group_5699" data-name="Group 5699">
                        <g id="prefix__Group_5698" data-name="Group 5698">
                            <g id="prefix__Group_10715" data-name="Group 10715">
                                <path id="prefix__Path_3020" d="M532.28 607.044s-3.556-1.116-3.842-3.224c-.244-1.794-1.853-3.934-2.348-4.594-.661-.883-1.682-4.349-2.8-3.526s1.407 5.794 1.728 6.943-4.543-1.038-5.747-.737-4.367 8.564-.854 9.678 8-.015 8.579.3a22.6 22.6 0 002.523.911z" class="prefix__cls-9" data-name="Path 3020"/>
                                <path id="prefix__Path_10923" d="M529.739 613.3l-.341-.1a22.965 22.965 0 01-2.569-.928 8.142 8.142 0 00-1.531.062 18.4 18.4 0 01-7.01-.351c-.907-.287-1.973-1.149-1.9-3.616.083-2.675 1.665-6.589 2.774-6.866a8.061 8.061 0 013.152.549 14.447 14.447 0 002.233.516c-.1-.283-.274-.7-.469-1.174-1.178-2.852-2.07-5.274-1.042-6.028a.956.956 0 01.829-.176c.808.205 1.385 1.433 1.943 2.619a8.467 8.467 0 00.611 1.169c.543.724 2.17 2.9 2.428 4.788.205 1.514 2.635 2.594 3.553 2.882l.461.144zm-3.169-1.889a1.275 1.275 0 01.624.111c.67.285 1.384.549 2.1.772l2.409-5.014c-1.023-.4-3.425-1.525-3.68-3.4a10.65 10.65 0 00-2.261-4.39 8.454 8.454 0 01-.706-1.324c-.362-.77-.968-2.057-1.392-2.166-.021 0-.056-.013-.131.042-.583.427.85 3.895 1.321 5.034.267.645.477 1.153.563 1.459a.647.647 0 01-.146.648c-.423.422-1.382.178-3.178-.326a9.282 9.282 0 00-2.725-.541c-.582.232-2.239 3.842-2.141 6.526.047 1.3.489 2.086 1.312 2.347a17.678 17.678 0 006.684.317c.611-.059 1.037-.095 1.347-.095z" class="prefix__cls-8" data-name="Path 10923"/>
                            </g>
                        </g>
                    </g>
                </g>
                <g id="prefix__Group_5703" data-name="Group 5703">
                    <g id="prefix__Group_5702" data-name="Group 5702">
                        <g id="prefix__Group_5701" data-name="Group 5701">
                            <g id="prefix__Group_10716" data-name="Group 10716">
                                <path id="prefix__Path_3021" d="M520.149 601.974s-10.981-2.7-11.861-2.262-.993 1.036.023 1.331 10.534 2.91 10.534 2.91-13.531-1-14.332-.808c-.469.115-.752 1.271-.223 1.479s13.884 1.972 13.884 1.972-12.636-.919-13.256-.551a.872.872 0 00.395 1.577c.932.132 12.612 1.645 12.612 1.645s-9.239-.088-9.582.529c-.209.377-.5 1.365 1.883 1.313s8.023.418 8.023.418z" class="prefix__cls-9" data-name="Path 3021"/>
                                <path id="prefix__Path_10924" d="M518.587 611.974l-.372-.031c-.056-.005-5.64-.453-7.979-.416-1.231.029-1.99-.211-2.3-.73a1.179 1.179 0 01.045-1.2c.091-.165.293-.527 3.969-.681-3.049-.4-6.228-.811-6.693-.876a1.292 1.292 0 01-.886-.535 1.291 1.291 0 01.307-1.8 11.1 11.1 0 012.952-.125c-1.888-.272-3.3-.492-3.49-.566a.959.959 0 01-.548-1.033 1.334 1.334 0 01.822-1.241c.569-.139 6.1.211 10.251.5-2.723-.75-5.905-1.628-6.467-1.791-.8-.232-1-.634-1.022-.931-.023-.258.068-.753.929-1.177.919-.446 8.8 1.41 12.145 2.231l.388.1zm-7.948-1.287c2.173 0 6.052.295 7.274.394l1.749-8.8c-5.07-1.235-10.553-2.391-11.212-2.189-.322.16-.43.308-.444.353a1.19 1.19 0 00.422.194c1 .289 10.433 2.881 10.528 2.908l-.141.819c-5.143-.382-13.545-.945-14.21-.819a.812.812 0 00-.168.379.475.475 0 00.016.312c.5.153 8.518 1.246 13.776 1.94l-.085.831c-4.67-.34-12.348-.8-13.058-.587a.594.594 0 00-.112.254.448.448 0 00.077.339.461.461 0 00.315.189c.925.13 12.5 1.63 12.613 1.645l-.057.832c-4.047-.043-8.533.094-9.248.384a.354.354 0 00-.025.3c.035.059.256.341 1.568.325.132-.001.273-.003.422-.003z" class="prefix__cls-8" data-name="Path 10924"/>
                            </g>
                        </g>
                    </g>
                </g>
                <g id="prefix__Group_10717" data-name="Group 10717">
                    <path id="prefix__Path_3022" d="M607.462 653.949q2.5-.166 4.928-.552a57.074 57.074 0 0016-4.968c-1.122-1.76-1.9-2.774-1.9-2.774-9.713-7.307-15.638-.655-19.028 8.294z" class="prefix__cls-9" data-name="Path 3022"/>
                    <path id="prefix__Path_10925" d="M606.841 654.409l.231-.608c2.44-6.443 5.6-10.266 9.385-11.363 3.091-.891 6.55.075 10.283 2.883l.08.079c.033.042.8 1.048 1.922 2.8l.253.4-.424.2a57.462 57.462 0 01-16.117 5.005c-1.627.258-3.3.445-4.964.556zm11.9-11.456a7.412 7.412 0 00-2.057.287c-3.4.987-6.3 4.432-8.6 10.244a53.5 53.5 0 004.235-.5 56.581 56.581 0 0015.458-4.728 41.115 41.115 0 00-1.59-2.3c-2.663-2-5.158-3.003-7.441-3.003z" class="prefix__cls-8" data-name="Path 10925"/>
                </g>
                <g id="prefix__Group_10718" data-name="Group 10718">
                    <path id="prefix__Path_3023" d="M588.41 652.107a58.2 58.2 0 0023.977 1.29c-3.09-5.825-9.815-8.8-23.281-3.959.003 0-.251.978-.696 2.669z" class="prefix__cls-9" data-name="Path 3023"/>
                    <path id="prefix__Path_10926" d="M603.422 654.51a58.314 58.314 0 01-15.12-2l-.4-.108.106-.4c.328-1.246.552-2.1.645-2.463l-.236-.294.549-.2c12.03-4.325 20.034-2.924 23.793 4.157l.275.518-.581.09a58.862 58.862 0 01-9.031.7zm-14.5-2.7a57.4 57.4 0 0022.808 1.265c-3.63-6.164-11.122-7.28-22.287-3.313-.078.352-.237.96-.523 2.047z" class="prefix__cls-8" data-name="Path 10926"/>
                </g>
                <g id="prefix__Group_5704" data-name="Group 5704">
                    <g id="prefix__Group_10719" data-name="Group 10719">
                        <path id="prefix__Path_3024" d="M594.157 570.142a15.253 15.253 0 00-8.849 4.557 58.391 58.391 0 00-8.38 12.764c-1 2.176-14.981 22.346-15.7 22.8s-6.836-1.153-11.733-1.561c-7.99-.668-19.944-4.737-19.944-4.737L527.772 613s29.4 9.487 36.184 7.815c8.3-2.044 27.4-26.545 27.4-26.545s14.227-16.691 2.801-24.128z" class="prefix__cls-9" data-name="Path 3024"/>
                        <path id="prefix__Path_10927" d="M561.9 621.425c-9.255 0-33.154-7.673-34.258-8.029l-.353-.114 1.939-9.863.452.154c.119.04 12 4.059 19.844 4.716 2.328.194 4.964.664 7.083 1.041a21.552 21.552 0 004.41.574c.629-.553 14.423-20.2 15.529-22.614A58.972 58.972 0 01585 574.414a15.723 15.723 0 019.094-4.684l.156-.023.132.085a9.528 9.528 0 014.517 6.794c1.16 8-6.888 17.551-7.232 17.953-.772.991-19.274 24.626-27.614 26.68a9.322 9.322 0 01-2.153.206zm-33.648-8.712c3.35 1.063 29.406 9.224 35.6 7.7 8.062-1.986 26.977-26.153 27.167-26.4.093-.11 8.159-9.678 7.053-17.307a8.69 8.69 0 00-4.015-6.125 14.9 14.9 0 00-8.452 4.409 57.972 57.972 0 00-8.3 12.65c-.937 2.044-15.017 22.449-15.859 22.981-.477.3-1.677.122-4.986-.467-2.1-.374-4.716-.84-7.005-1.03-7.071-.592-17.326-3.864-19.592-4.608z" class="prefix__cls-8" data-name="Path 10927"/>
                    </g>
                </g>
                <g id="prefix__Group_5704-2" class="prefix__cls-10" data-name="Group 5704">
                    <path id="prefix__Path_10928" d="M598.589 577.867a11.272 11.272 0 00-2.01-1.671 15.224 15.224 0 00-8.843 4.554 58.252 58.252 0 00-8.382 12.767c-1.005 2.181-14.984 22.349-15.711 22.809s-6.831-1.163-11.725-1.562c-8-.667-19.95-4.737-19.95-4.737l-.787 4.034c-2.108-.654-3.4-1.066-3.4-1.066l1.768-9.024s11.956 4.07 19.95 4.736c4.894.4 11.011 2.011 11.726 1.563s14.705-20.629 15.71-22.809a58.264 58.264 0 018.383-12.767 15.231 15.231 0 018.842-4.555 9.077 9.077 0 014.429 7.728z" class="prefix__cls-11" data-name="Path 10928"/>
                </g>
                <g id="prefix__Group_5705" data-name="Group 5705">
                    <g id="prefix__Group_10720" data-name="Group 10720">
                        <path id="prefix__Path_3025" d="M584.728 603.967c3.174 7.351.18 9.8 1.631 17.139 1.037 5.247 1.092 20.762.943 30.688.368.11.739.211 1.111.313.232.062.461.121.693.179a57.812 57.812 0 0014.349 1.8q2.019 0 4.009-.137 2.5-.166 4.928-.552a54.317 54.317 0 002.347-.417 56.883 56.883 0 0013.654-4.551q2.382-1.145 4.635-2.492c-2.112-6-4.737-11.994-7.546-14.928-1.464-1.526-1.307-11.713-.309-14.253s12.241-21.493 12.241-21.493.825-19.225-4.081-23.034c-4.26-3.31-15.879-4.492-17.964-5.215s-8.153-1.041-12.413-.407c0 0-6.529 3.083-8.8 3.537s-11.064 11.875-12.606 16.051.001 10.43 3.178 17.772z" data-name="Path 3025" style="fill:#ed4e67"/>
                        <path id="prefix__Path_10929" d="M603.426 654.5A58.318 58.318 0 01589 652.691c-.232-.058-.464-.119-.7-.181l-.125-.035c-.333-.091-.667-.182-1-.281l-.3-.09.005-.316c.174-11.624.019-25.767-.935-30.6a24.686 24.686 0 01-.264-7.57 16.863 16.863 0 00-1.341-9.484c-3.581-8.275-4.623-14.19-3.186-18.082 1.546-4.188 10.436-15.822 12.917-16.317 2.193-.437 8.637-3.474 8.7-3.505l.117-.035c4.413-.658 10.508-.3 12.611.425a33.436 33.436 0 003.367.7c4.589.835 11.523 2.1 14.716 4.579 5.019 3.9 4.276 22.588 4.242 23.381l-.058.2c-.113.189-11.238 18.953-12.212 21.433-1 2.538-1.039 12.5.222 13.812 2.448 2.556 5.018 7.628 7.639 15.078l.114.322-.294.175a58.722 58.722 0 01-4.669 2.509 57.308 57.308 0 01-13.753 4.584c-.783.157-1.572.3-2.364.421-1.626.258-3.3.445-4.964.556a59.744 59.744 0 01-4.037.138zm-15.7-3.022c.225.065.45.126.675.188l.125.033c.227.063.454.121.683.179a57.491 57.491 0 0014.219 1.787h.029c1.308 0 2.647-.046 3.981-.136a56.695 56.695 0 007.221-.963 56.519 56.519 0 0013.554-4.517 56.427 56.427 0 004.309-2.3c-2.541-7.16-5.01-12.022-7.34-14.455-1.613-1.682-1.44-12.035-.4-14.694.973-2.479 11.272-19.87 12.216-21.463.055-1.524.576-19.089-3.923-22.582-3.032-2.356-10.119-3.647-14.353-4.417a32.39 32.39 0 01-3.492-.733c-1.992-.691-7.972-1.008-12.154-.4-.688.323-6.633 3.1-8.839 3.542-2.023.4-10.757 11.617-12.3 15.787-1.358 3.681-.322 9.392 3.169 17.462a17.765 17.765 0 011.408 9.883 23.984 23.984 0 00.25 7.342c.963 4.857 1.127 18.855.96 30.461z" class="prefix__cls-8" data-name="Path 10929"/>
                    </g>
                </g>
                <g id="prefix__Group_5706" data-name="Group 5706">
                    <g id="prefix__Group_10721" data-name="Group 10721">
                        <path id="prefix__Path_3026" d="M599.837 559.071s1.3 11.977 1.031 15.877c0 0 6.784 6.8 14.5-7.935a20.229 20.229 0 01-.8-14.35c2.443-8.276-14.731 6.408-14.731 6.408z" class="prefix__cls-9" data-name="Path 3026"/>
                        <path id="prefix__Path_10930" d="M604.9 576.932a6.468 6.468 0 01-4.328-1.69l-.134-.134.013-.19c.267-3.817-1.016-15.683-1.029-15.8l-.023-.218.167-.144c2.062-1.762 12.473-10.465 15.042-8.8 1 .65.519 2.293.359 2.834a19.79 19.79 0 00.784 14.06l.082.185-.094.179c-3.078 5.877-6.4 9.124-9.863 9.652a6.534 6.534 0 01-.976.066zm-3.6-2.161a5.75 5.75 0 004.468 1.259c3.106-.48 6.264-3.6 9.141-9.034a20.625 20.625 0 01-.738-14.459c.3-1 .291-1.69-.014-1.889-1.49-.971-8.946 4.4-13.878 8.6.175 1.664 1.221 11.707 1.021 15.523z" class="prefix__cls-8" data-name="Path 10930"/>
                    </g>
                </g>
                <g id="prefix__Group_10722" data-name="Group 10722">
                    <path id="prefix__Path_3027" d="M580.846 606.677s-1.633-10.863.1-17.469a42.191 42.191 0 003.115 13.748z" class="prefix__cls-9" data-name="Path 3027"/>
                    <path id="prefix__Path_10931" d="M580.568 607.636l-.135-.9c-.067-.446-1.626-11.023.112-17.636l.822.107a42.269 42.269 0 003.087 13.6l.09.234zm.238-15.277a62.915 62.915 0 00.331 13.343l2.447-2.83a48.882 48.882 0 01-2.778-10.513z" class="prefix__cls-8" data-name="Path 10931"/>
                </g>
                <g id="prefix__Group_10723" data-name="Group 10723">
                    <path id="prefix__Path_3028" d="M619.882 536.6s1.5-1.8 2.056.013-1.271 7.192-1.472 7.971c0 0-.907 3.02-1.27 2.634s.686-10.618.686-10.618z" class="prefix__cls-9" data-name="Path 3028"/>
                    <path id="prefix__Path_10932" d="M619.151 547.711l-.259-.207c-.147-.157-.493-.525.575-10.947l.013-.126.081-.1c.154-.184.96-1.1 1.8-.926a1.37 1.37 0 01.976 1.082c.451 1.462-.395 4.651-1.283 7.577-.088.291-.154.508-.183.621-.847 2.818-1.294 2.923-1.485 2.968zm1.133-10.935c-.359 3.524-.683 7.366-.741 9.208.179-.454.37-1.013.523-1.521.027-.1.1-.333.189-.639.47-1.552 1.721-5.675 1.284-7.089-.092-.3-.217-.484-.341-.509-.231-.059-.648.267-.914.55z" class="prefix__cls-8" data-name="Path 10932"/>
                </g>
                <g id="prefix__Group_10724" data-name="Group 10724">
                    <path id="prefix__Path_3029" d="M593.731 536.822s-1.5-1.8-2.055.013 1.27 7.192 1.471 7.972c0 0 .908 3.02 1.269 2.634s-.685-10.619-.685-10.619z" class="prefix__cls-9" data-name="Path 3029"/>
                    <path id="prefix__Path_10933" d="M594.556 547.9l-.328-.024c-.191-.045-.639-.149-1.481-2.951-.034-.133-.1-.352-.19-.646-.885-2.923-1.73-6.11-1.28-7.57a1.369 1.369 0 01.974-1.082c.841-.175 1.648.742 1.8.925l.082.1.013.127c1.067 10.422.722 10.79.575 10.947zm-2.092-11.458a.2.2 0 00-.049.005c-.124.024-.248.21-.34.508-.435 1.413.812 5.532 1.281 7.082l.2.663c.15.5.34 1.051.518 1.5-.059-1.844-.382-5.685-.741-9.208a1.654 1.654 0 00-.869-.547z" class="prefix__cls-8" data-name="Path 10933"/>
                </g>
                <g id="prefix__Group_10725" data-name="Group 10725">
                    <path id="prefix__Path_3030" d="M604.457 519.39s-13.741 2.115-11.729 23.76 14.139 19.925 14.952 19.907 12.165.45 13.148-25.961c-.003-.002.455-19.529-16.371-17.706z" class="prefix__cls-9" data-name="Path 3030"/>
                    <path id="prefix__Path_10934" d="M606.652 563.513c-11.535 0-13.889-15.478-14.34-20.324-2.025-21.789 11.941-24.189 12.082-24.212h.018c4.648-.505 8.445.549 11.285 3.13 5.248 4.766 5.544 13.141 5.549 14.793h.008l-.008.211c-.907 24.362-10.561 26.336-13.5 26.361l-.189.01a15.49 15.49 0 01-.905.031zm-2.14-43.709c-.661.106-13.308 2.44-11.368 23.307 1.71 18.395 10.607 19.787 14.359 19.538l.168-.01c2.82-.023 11.86-1.933 12.74-25.552v-.006c0-.385.052-9.52-5.275-14.358-2.654-2.411-6.225-3.39-10.624-2.923z" class="prefix__cls-8" data-name="Path 10934"/>
                </g>
                <path id="prefix__Path_10935" d="M620.829 537.095c-.824 22.276-9.036 25.437-12.077 25.885 3.246-2.955 6.711-9.4 7.232-23.462 0 0 .448-19.527-16.377-17.71 0 0-.121.025-.339.073a12.467 12.467 0 015.184-2.495c16.825-1.817 16.377 17.709 16.377 17.709z" class="prefix__cls-13" data-name="Path 10935"/>
                <g id="prefix__Group_10726" data-name="Group 10726">
                    <path id="prefix__Path_3031" d="M618.189 535.8s-15.25 4.535-22.552 3.085c0 0-.466 2.694-1.515 2.859s-1.587-5.149-1.587-5.149-.357-17.6 15.565-17.767 12.687 19.072 12.687 19.072l-.217 3.286s-2.276.899-2.381-5.386z" class="prefix__cls-7" data-name="Path 3031"/>
                    <path id="prefix__Path_10936" d="M594.074 542.169a.773.773 0 01-.479-.172c-.939-.723-1.367-4.282-1.475-5.355-.009-.382-.116-8.615 5.039-13.931a14.829 14.829 0 0110.937-4.3h.209c4.179 0 7.433 1.328 9.675 3.952 4.827 5.646 3.287 15.2 3.219 15.6l-.229 3.509-.246.1a1.473 1.473 0 01-1.322-.2c-.967-.646-1.51-2.332-1.616-5.016-2.726.777-15.074 4.117-21.821 3.018-.2.877-.718 2.62-1.778 2.788a.945.945 0 01-.113.007zm14.23-22.92h-.2a14.024 14.024 0 00-10.345 4.042c-4.915 5.069-4.808 13.218-4.806 13.3.235 2.31.779 4.545 1.161 4.75.435-.084.937-1.519 1.111-2.524l.072-.422.421.083c7.116 1.419 22.2-3.031 22.352-3.075l.527-.157.01.55c.059 3.514.8 4.555 1.238 4.864a.8.8 0 00.332.142l.193-2.934c.021-.137 1.547-9.617-3.026-14.963-2.076-2.426-5.117-3.656-9.044-3.656z" class="prefix__cls-8" data-name="Path 10936"/>
                </g>
                <g id="prefix__Group_10727" data-name="Group 10727">
                    <path id="prefix__Path_3032" d="M613.077 560.992s-4.812 4.558-12.213.375a7.714 7.714 0 006.335 3.561 6.99 6.99 0 005.878-3.936z" class="prefix__cls-9" data-name="Path 3032"/>
                    <path id="prefix__Path_10937" d="M607.041 565.347a8.085 8.085 0 01-6.535-3.766l-.812-1.356 1.375.778c7.029 3.973 11.533-.139 11.721-.316l.668.476a7.345 7.345 0 01-6.25 4.182zm-4.57-2.736a6.728 6.728 0 004.718 1.9 6.024 6.024 0 004.346-2.028 10.763 10.763 0 01-9.064.128z" class="prefix__cls-8" data-name="Path 10937"/>
                </g>
                <g id="prefix__Group_10728" data-name="Group 10728">
                    <path id="prefix__Path_3033" d="M620.581 568.059s-4.666 13.782-17.48 12.771-6.074-11.64-6.074-11.64a28.254 28.254 0 014.093-2.005c.9-.173 14.167-.34 14.167-.34z" class="prefix__cls-9" data-name="Path 3033"/>
                    <path id="prefix__Path_10938" d="M604.419 581.3c-.441 0-.89-.018-1.352-.055-3.981-.314-6.554-1.583-7.647-3.771-1.8-3.611 1.128-8.31 1.254-8.508l.139-.136a28.932 28.932 0 014.154-2.035c.983-.2 12.952-.351 14.314-.369l5.844 1.328-.148.438c-.046.137-4.583 13.108-16.558 13.108zm-7.089-11.8c-.372.625-2.637 4.659-1.162 7.607.954 1.907 3.3 3.02 6.966 3.31 11.066.883 15.962-9.753 16.887-12.055l-4.828-1.108c-5.22.078-13.362.223-13.995.345a28.449 28.449 0 00-3.868 1.901z" class="prefix__cls-8" data-name="Path 10938"/>
                </g>
                <g id="prefix__Group_10729" data-name="Group 10729">
                    <path id="prefix__Path_3034" d="M585.083 608.654c.888 3.024 2.528 38.711 1.659 42.975.552.167 1.108.325 1.671.478.23.062.461.121.692.179.947-13.571 1.209-32.463 1.209-45.612 0-18.918 6.714-37.486 6.714-37.486l-3.655 1.08c-7.21 6.068-11.674 13.13-12.425 17.9-.594 3.782 3.24 17.423 4.135 20.486z" class="prefix__cls-9" data-name="Path 3034"/>
                    <path id="prefix__Path_10939" d="M589.487 652.813l-.484-.122a44.997 44.997 0 01-.7-.181 58.551 58.551 0 01-1.683-.482l-.363-.111.076-.371c.872-4.282-.8-39.877-1.651-42.774-.492-1.685-4.79-16.573-4.147-20.671.835-5.3 5.769-12.43 12.569-18.153l.151-.081 4.446-1.313-.281.776c-.067.184-6.689 18.721-6.689 37.344 0 8.513-.117 30-1.21 45.642zm-2.275-1.479a62.56 62.56 0 001.51.423c1.058-15.57 1.173-36.67 1.173-45.083 0-16.61 5.223-33.139 6.473-36.856l-2.793.826c-6.621 5.59-11.412 12.488-12.215 17.588-.5 3.182 2.356 14.261 4.123 20.3.838 2.86 2.465 37.099 1.729 42.802z" class="prefix__cls-8" data-name="Path 10939"/>
                </g>
                <g id="prefix__Group_10730" data-name="Group 10730">
                    <path id="prefix__Path_3035" d="M614.738 652.98a57.462 57.462 0 0021.132-8.854 12.151 12.151 0 00-.841-1.587c-6.533-10.215-8.611-19.252-1.561-40.574s-3.09-31.876-3.09-31.876-10.372-2.382-12.328-2.606a192.683 192.683 0 00-6.286 30.464c-1.028 8.327.485 31.434 2.974 55.033z" class="prefix__cls-9" data-name="Path 3035"/>
                    <path id="prefix__Path_10940" d="M614.371 653.479l-.048-.456c-2.178-20.652-4.1-45.98-2.974-55.127a193.837 193.837 0 016.3-30.53l.1-.338.35.04c1.957.224 11.95 2.516 12.374 2.614l.121.028.086.089c.1.108 10.234 10.983 3.187 32.3-6.974 21.092-4.961 30.092 1.516 40.218a12.656 12.656 0 01.871 1.643l.14.318-.287.2a57.556 57.556 0 01-21.286 8.918zm3.978-85.532A192.994 192.994 0 00612.178 598c-.931 7.55.19 28.4 2.927 54.481a56.684 56.684 0 0020.238-8.5 11.957 11.957 0 00-.668-1.216c-6.617-10.345-8.683-19.516-1.6-40.927 6.546-19.8-1.989-30.3-2.916-31.367-1.137-.263-9.408-2.15-11.81-2.524z" class="prefix__cls-8" data-name="Path 10940"/>
                </g>
                <path id="prefix__Path_10941" d="M635.025 642.539a11.69 11.69 0 01.848 1.586 55.614 55.614 0 01-7.122 4.119c-6.36-10.066-8.31-19.139-1.345-40.227 7.05-21.319-3.089-31.87-3.089-31.87s-4.506-1.041-8.127-1.8c.581-2.3 1.2-4.578 1.865-6.855 1.95.218 12.319 2.6 12.319 2.6s10.139 10.55 3.089 31.869-4.963 30.366 1.562 40.578z" class="prefix__cls-13" data-name="Path 10941"/>
                <g id="prefix__Group_10731" data-name="Group 10731">
                    <path id="prefix__Path_3036" d="M593.936 624.122l27.1 46.942 30.126-17.394-25.922-47.619z" class="prefix__cls-7" data-name="Path 3036"/>
                    <path id="prefix__Path_10942" d="M620.884 671.634l-.21-.361-27.309-47.3 32.035-18.498 26.322 48.354zm-26.377-47.359l26.682 46.219 29.411-16.982-25.524-46.885z" class="prefix__cls-8" data-name="Path 10942"/>
                </g>
                <g id="prefix__Group_10732" data-name="Group 10732">
                    <path id="prefix__Path_3037" d="M597.2 625.736l24.068 41.689 26.756-15.445L625 609.688z" class="prefix__cls-9" data-name="Path 3037"/>
                    <path id="prefix__Path_10943" d="M621.119 667.995l-.21-.361-24.277-42.051 28.535-16.471 23.421 43.026zm-23.346-42.107l23.651 40.967 26.042-15.034-22.624-41.557z" class="prefix__cls-8" data-name="Path 10943"/>
                </g>
                <g id="prefix__Group_10733" data-name="Group 10733">
                    <path id="prefix__Path_3038" d="M606.083 621.992l-1.69-2.924 10.817-6.245 2.112 2.682z" class="prefix__cls-9" data-name="Path 3038"/>
                    <path id="prefix__Path_10944" d="M605.93 622.562l-2.108-3.646 11.493-6.636 2.633 3.345zm-.966-3.341l1.271 2.2 10.461-6.038-1.589-2.018z" class="prefix__cls-8" data-name="Path 10944"/>
                </g>
                <g id="prefix__Group_5711" data-name="Group 5711">
                    <g id="prefix__Group_5710" data-name="Group 5710">
                        <g id="prefix__Group_5709" data-name="Group 5709">
                            <g id="prefix__Group_5708" data-name="Group 5708">
                                <g id="prefix__Group_5707" data-name="Group 5707">
                                    <g id="prefix__Group_10734" data-name="Group 10734">
                                        <path id="prefix__Path_3039" d="M607.374 655.295a5.569 5.569 0 001.772-.255s.947-.549 1.643-.9a5.334 5.334 0 01.55-.25 10.286 10.286 0 003.021-1.278 68.739 68.739 0 005.441-5.744l-2.005-3.047-1.469-3.121s-8.91.576-10.116 1.22a3.647 3.647 0 00-.334.2 13.072 13.072 0 00-1.886 1.928c-.167.147-1.777 1.719-1.722 2.388a2.195 2.195 0 001.068 1.849 5.257 5.257 0 001.123 2.658 3.264 3.264 0 001.571 2.415s.352 1.693 1.343 1.937z" class="prefix__cls-9" data-name="Path 3039"/>
                                        <path id="prefix__Path_10945" d="M607.472 655.714h-.106l-.092-.012c-1.035-.255-1.476-1.573-1.609-2.076a3.706 3.706 0 01-1.6-2.509 5.669 5.669 0 01-1.112-2.581 2.6 2.6 0 01-1.1-2.089c-.08-.939 1.842-2.69 1.862-2.706a12.951 12.951 0 011.9-1.938 4.046 4.046 0 01.4-.248c1.251-.669 9.366-1.211 10.287-1.27l.284-.019 1.59 3.379 2.149 3.259-.206.239a66.972 66.972 0 01-5.519 5.814 10.714 10.714 0 01-3.16 1.341 6.073 6.073 0 00-.455.214c-.693.348-1.624.889-1.627.89a5.9 5.9 0 01-1.886.312zm-.038-.835a4.19 4.19 0 001.582-.236c0-.01.909-.535 1.586-.875a5.293 5.293 0 01.587-.266 10.068 10.068 0 002.949-1.243 58.5 58.5 0 005.14-5.425l-1.831-2.783-1.376-2.915c-3.434.23-8.865.728-9.663 1.153a3.424 3.424 0 00-.3.18 12.741 12.741 0 00-1.794 1.843 6.485 6.485 0 00-1.632 2.094 1.782 1.782 0 00.866 1.525l.175.1.025.2a4.824 4.824 0 001.034 2.448l.075.092.014.119a2.867 2.867 0 001.373 2.11l.157.094.038.178c.077.367.422 1.421.995 1.607z" class="prefix__cls-8" data-name="Path 10945"/>
                                    </g>
                                </g>
                            </g>
                        </g>
                    </g>
                </g>
                <g id="prefix__Group_5712" data-name="Group 5712">
                    <g id="prefix__Group_10735" data-name="Group 10735">
                        <path id="prefix__Path_3040" d="M625.737 570.142s8.23-2.358 12.947 6.711 4.693 12.938 5.323 17.366c.595 4.181 3.281 15.6 3.554 16.776s6.355 15.237 3.565 20.151c-2.8 4.939-31.288 19.476-31.108 20.565s-4.933-10.992-4.933-10.992 11.527-6.424 13.414-8.4c3.066-3.213 9.535-6.674 8.206-10.66-1.561-4.682-6.251-20.478-7.339-22.791s-10.566-25.779-3.629-28.726z" class="prefix__cls-9" data-name="Path 3040"/>
                        <path id="prefix__Path_10946" d="M620 652.208c-.4 0-.929-1.008-5.3-11.325l-.146-.346.327-.182c.114-.064 11.493-6.416 13.315-8.326a35.431 35.431 0 013.029-2.684c2.932-2.416 5.964-4.914 5.082-7.555-.552-1.658-1.513-4.759-2.529-8.042-1.827-5.9-4.1-13.234-4.791-14.7-.088-.185-8.423-19.477-5.615-26.832a4.09 4.09 0 012.2-2.453l.048-.017c.085-.023 8.614-2.345 13.433 6.919 4.162 8 4.664 12 5.15 15.862.069.544.137 1.087.215 1.638.252 1.77 1.057 6.045 3.46 16.365l.088.376c.037.162.24.71.5 1.4 1.495 4.033 5.466 14.748 3.024 19.048-1.808 3.186-13.615 10.036-22.236 15.038-4.028 2.338-8.189 4.751-8.8 5.391l.038.229-.359.172a.477.477 0 01-.133.024zm-4.384-11.308c1.468 3.46 3.656 8.526 4.439 10.121.827-.7 3.056-2.036 8.779-5.356 8.057-4.675 20.233-11.738 21.929-14.728 2.25-3.962-1.624-14.412-3.081-18.347-.323-.87-.481-1.3-.528-1.5l-.088-.375c-1.907-8.192-3.108-13.874-3.473-16.435-.079-.556-.147-1.1-.217-1.653-.476-3.791-.97-7.713-5.062-15.58-4.387-8.437-11.967-6.629-12.439-6.508a3.25 3.25 0 00-1.722 1.97c-2.452 6.423 4.462 23.783 5.591 26.18.716 1.523 2.9 8.584 4.833 14.813 1.015 3.279 1.974 6.376 2.524 8.024 1.063 3.186-2.341 5.99-5.344 8.464a34.825 34.825 0 00-2.956 2.617c-1.75 1.833-11.254 7.21-13.185 8.293z" class="prefix__cls-8" data-name="Path 10946"/>
                    </g>
                </g>
                <g id="prefix__Group_5712-2" class="prefix__cls-10" data-name="Group 5712">
                    <path id="prefix__Path_10947" d="M651.123 631.14c-2.8 4.942-31.287 19.478-31.106 20.568.037.206-.109-.048-.387-.593 8.091-4.8 24.553-13.858 26.648-17.552 2.8-4.906-3.294-18.969-3.561-20.144s-2.955-12.6-3.561-16.777c-.63-4.433-.606-8.3-5.318-17.37-2.931-5.644-7.219-6.856-10.054-6.977a3.635 3.635 0 011.951-2.156s8.237-2.35 12.948 6.711 4.688 12.937 5.318 17.37c.606 4.179 3.283 15.6 3.561 16.776s6.36 15.239 3.561 20.144z" class="prefix__cls-11" data-name="Path 10947"/>
                </g>
                <g id="prefix__Group_5716-2" data-name="Group 5716-2">
                    <g id="prefix__Group_10736" data-name="Group 10736">
                        <path id="prefix__Path_2961" d="M617.067 547.494c-.865-2.117-5.791-2.065-6.82 0a10.509 10.509 0 016.82 0z" class="prefix__cls-14" data-name="Path 2961"/>
                        <path id="prefix__Path_10948" d="M609.29 548.477l.583-1.171c.659-1.32 2.535-1.843 4.118-1.794 1.7.064 3.029.763 3.462 1.823l.425 1.04-1-.509a10.25 10.25 0 00-6.434 0zm4.344-1.973a13.285 13.285 0 011.805.12 4.742 4.742 0 00-1.479-.277 5.417 5.417 0 00-1.853.243 13.275 13.275 0 011.527-.09z" class="prefix__cls-8" data-name="Path 10948"/>
                    </g>
                    <g id="prefix__Group_10737" data-name="Group 10737">
                        <path id="prefix__Path_2962" d="M604.129 547.494c-.865-2.117-5.79-2.065-6.819 0a10.506 10.506 0 016.819 0z" class="prefix__cls-14" data-name="Path 2962"/>
                        <path id="prefix__Path_10949" d="M596.353 548.475l.583-1.169c.659-1.32 2.54-1.843 4.118-1.794 1.7.064 3.028.763 3.462 1.823l.425 1.04-1-.509a10.286 10.286 0 00-6.434 0zm4.345-1.969a13.131 13.131 0 011.8.119 4.743 4.743 0 00-1.481-.278 5.508 5.508 0 00-1.856.244 13.353 13.353 0 011.539-.085z" class="prefix__cls-8" data-name="Path 10949"/>
                    </g>
                </g>
            </g>
        </g>
    </g>
</svg>
